<svg width="12" height="12" viewBox="0 0 12 12" fill="none" xmlns="http://www.w3.org/2000/svg">
<path d="M11.7664 10.7171L11.74 0.535428L1.55839 0.50901C1.45231 0.494648 1.34439 0.503244 1.24192 0.534218C1.13946 0.565192 1.04484 0.617821 0.964483 0.68854C0.884125 0.759259 0.8199 0.846418 0.776155 0.944117C0.73241 1.04182 0.710166 1.14777 0.710931 1.25481C0.711695 1.36186 0.73545 1.46749 0.780586 1.56455C0.825722 1.66161 0.891186 1.74785 0.972546 1.81741C1.05391 1.88697 1.14926 1.93824 1.25216 1.96775C1.35506 1.99726 1.4631 2.00431 1.56896 1.98844L9.19857 2.02014L1.32525 9.7846C1.18512 9.92473 1.1064 10.1148 1.1064 10.313C1.1064 10.5111 1.18512 10.7012 1.32525 10.8413C1.46538 10.9815 1.65544 11.0602 1.85362 11.0602C2.0518 11.0602 2.24185 10.9815 2.38199 10.8413L10.2553 3.07687L10.287 10.7065C10.2877 10.9048 10.3672 11.0947 10.5079 11.2344C10.6486 11.3741 10.839 11.4522 11.0373 11.4515C11.2356 11.4508 11.4255 11.3713 11.5652 11.2306C11.7049 11.0899 11.783 10.8995 11.7823 10.7012L11.7664 10.7171Z" fill="#363636"/>
</svg>
